<svg xmlns="http://www.w3.org/2000/svg" viewBox="0 0 421 550"><defs><style>.cls-1{fill:#f2f2f2;}.cls-2{fill:#3f3d56;}.cls-3,.cls-8{fill:#6c63ff;}.cls-3{opacity:0.3;}.cls-3,.cls-4,.cls-7,.cls-9{isolation:isolate;}.cls-4{opacity:0.1;}.cls-5{fill:#2f2e41;}.cls-6{fill:#ffb9b9;}.cls-7,.cls-9{opacity:0.2;}.cls-9{fill:none;stroke:#000;stroke-miterlimit:10;stroke-width:2px;}.cls-10{fill:#575a89;}</style></defs><g id="Layer_2" data-name="Layer 2"><g id="b8075969-ef49-4240-a25e-f088236f2735"><circle class="cls-1" cx="240" cy="32" r="32"/><path class="cls-2" d="M314.5,349.2c-5-11.5-12.7-21.6-28.1-30.1a98,98,0,0,0-25.4-10,62.27,62.27,0,0,0,16.3-11,56.31,56.31,0,0,0,15.6-23.3,77.18,77.18,0,0,0,3.5-28.2c-1.1-16.8-4.4-33.1-13.2-44.8s-21.2-20.7-37.6-27c-12.6-4.8-25.5-7.8-45.5-8.9V102l-40,25v39h-32V125l-41-23v64H0l28,48c8.65,0,14.51.81,17.5,2.3a13.18,13.18,0,0,1,6.5,6c1.3,2.5,1.9,8.4,1.9,17.5V413c0,9-.6,14.8-1.9,17.4s-2,4.9-5.1,6.3S43.7,438,35.1,438H35L0,486H87v64h41V486h32v64h40V485.6c26-1.3,44.5-4.7,59.4-10.3,19.3-7.2,34.1-17.7,44.7-31.5s14.9-34.9,15.8-51.2C320.6,378.1,319,359.4,314.5,349.2ZM128,220h0v-1.33h28c15.73,0,68.15-5.24,69,37.57s-69,41.06-69,41.06H128V294h0Zm0,122h32c6.5,0,28.86,1,37,1.36a35.63,35.63,0,0,1,9.76,1.74c1.15.39,2.24.83,3.42,1.32a49.62,49.62,0,0,1,13.79,7,28.94,28.94,0,0,1,7.13,6.7,38.46,38.46,0,0,1,2.36,3.69,37.46,37.46,0,0,1,4.17,10.29,41.74,41.74,0,0,1,1.47,10.72c0,7.79-1.44,14.24-5,19.7-4.81,8.06-12.7,13.77-21.58,17.8C189.57,432.74,160,432,160,432H128Z"/><path class="cls-3" d="M248.66,33.35a3.42,3.42,0,0,0-1.58-1.75,5.18,5.18,0,0,0-1.42-.58,3.25,3.25,0,0,0,.91-.64,3.37,3.37,0,0,0,.88-1.35,4.56,4.56,0,0,0,.19-1.64,4.88,4.88,0,0,0-.74-2.6,4.62,4.62,0,0,0-2.1-1.57,7.72,7.72,0,0,0-2.55-.51V19L240,20.45v2.26h-1.79V20.33L235.91,19v3.71H231l1.57,2.79a2.5,2.5,0,0,1,1,.13.72.72,0,0,1,.36.35,2.72,2.72,0,0,1,.11,1v10a2.88,2.88,0,0,1-.11,1c-.07.15-.11.28-.28.36s-.18.08-.66.08h0l-2,2.79h4.88V45h2.29V41.29H240V45h2.24V41.26a10.48,10.48,0,0,0,3.33-.6,5.56,5.56,0,0,0,2.51-1.82,5.81,5.81,0,0,0,.88-3A6.69,6.69,0,0,0,248.66,33.35Zm-10.46-7.5h0v-.08h1.56c.88,0,3.82-.3,3.87,2.18s-3.87,2.38-3.87,2.38h-1.56v-.19h0Zm0,7.08H240c.36,0,1.62.06,2.07.08a1.72,1.72,0,0,1,.55.1l.19.08a2.46,2.46,0,0,1,.77.4,1.65,1.65,0,0,1,.4.39,2.48,2.48,0,0,1,.37.81,2.57,2.57,0,0,1,.08.62,2.11,2.11,0,0,1-.28,1.15,2.59,2.59,0,0,1-1.21,1,7.57,7.57,0,0,1-2.94.56h-1.8Z"/><circle class="cls-1" cx="403" cy="291" r="18"/><path class="cls-4" d="M212.53,422.3C189.57,432.74,160,432,160,432H128v-6.11c13-3.64,31.07-5.89,51-5.89A233.62,233.62,0,0,1,212.53,422.3Z"/><path class="cls-4" d="M251,440c0,11.05-32.24,20-72,20s-72-8.95-72-20c0-5.51,8-10.5,21-14.11V432h32s29.57.74,52.53-9.7C235.4,425.64,251,432.31,251,440Z"/><rect class="cls-5" x="157.56" y="315.47" width="30.63" height="30.69"/><path class="cls-6" d="M169,337.17s2.54,8.88-1.9,9.51a17.43,17.43,0,0,0-7.61,3.17l8.25,10.78H182.9l9.51-9.51s-12.68-9.51-10.14-15.22S169,337.17,169,337.17Z"/><path class="cls-4" d="M169,337.17s2.54,8.88-1.9,9.51a17.43,17.43,0,0,0-7.61,3.17l8.25,10.78H182.9l9.51-9.51s-12.68-9.51-10.14-15.22S169,337.17,169,337.17Z"/><polygon class="cls-6" points="172.76 447.48 187.34 452.55 197.48 453.18 196.85 444.31 175.93 438.12 172.76 447.48"/><path class="cls-5" d="M191.46,445.57s0,8.88,1.27,8.88,18.38-1.9,23.45,0,12.68-5.07,8.88-8.88-10-9.5-13.88-8.24-19.72,4.44-19.72,4.44Z"/><path class="cls-5" d="M144.86,437.33s-7.6,15.22-2.53,16.49,10.78-.64,11.41-1.27,9.51-3.17,10.78-1.9,1.26-5.08,1.26-5.08Z"/><path class="cls-5" d="M151.2,416.41s-12,16.49-3.17,20.92,51.35,4.44,54.52,0,4.44-18.38,0-19.65S151.2,416.41,151.2,416.41Z"/><path class="cls-7" d="M151.2,416.41s-12,16.49-3.17,20.92,51.35,4.44,54.52,0,4.44-18.38,0-19.65S151.2,416.41,151.2,416.41Z"/><circle class="cls-6" cx="174.03" cy="327.03" r="14.58"/><path class="cls-8" d="M151.2,349.85l12.68-2.53s3.17,10.14,13.31,8.24,12.68-8.24,12.68-8.24,7.61,3.17,8.24,3.17,8.88,3.16,8.88,5.07-9.51,20.92-9.51,20.92l1.27,34.23-46.91-1.27,3.17-33.6Z"/><path class="cls-6" d="M144.23,366.33s-3.8,33.6-1.27,36.14S155.64,412,155.64,412v-7.61l-5.07-9.51,5.07-22.19Z"/><path class="cls-6" d="M209.84,365.38s-2.22,34.55-2.22,35.82-5.7,5.71-7.6,5.71-3.17-3.17-3.17-3.17l4.43-5.08-3.17-26Z"/><path class="cls-5" d="M203.82,413.88s28.53-15.85,29.16,0-14.58,22.19-14.58,22.19-39.3,11.78-40.89,7.47-4.75-11.28-2.22-11.91,5.71-1.9,7-.64,17.11-9.5,17.11-9.5Z"/><path class="cls-9" d="M217.13,412s-5.7,2.53-7.6,4.43-10.15,5.08-10.15,5.08"/><path class="cls-8" d="M155,351.12l-3.81-1.27s-13.94,14.58-9.51,18.39,7,5.07,8.25,6.33,7.6,1.91,7.6,1.91Z"/><path class="cls-8" d="M201.28,354.29l5.71,1.27s4.44,9.51,5.7,10.77-1.9.64-3.8,3.17-3.8,7-7.61,7-8.87-6.34-8.87-6.34Z"/><path class="cls-5" d="M152.47,419.58s-24.09-17.11-32.33-4.43,35.5,29.79,41.84,32.33S174,452.55,174,452.55s5.7-13.95,5.7-16.48-4.44-2.54-5.7-2.54-7-1.27-8.25-3.17S152.47,419.58,152.47,419.58Z"/><path class="cls-9" d="M139.16,415.15s6.34,5.07,12,6.34,7.61,4.43,7.61,4.43"/><path class="cls-10" d="M148.1,391.31l.5,26.84a3.37,3.37,0,0,0,3.4,3.3l49.95-.56a3.36,3.36,0,0,0,3.32-3.17l1.51-26.28a3.36,3.36,0,0,0-3.16-3.55H151.46a3.35,3.35,0,0,0-3.36,3.36Z"/><path class="cls-5" d="M142.32,350c1.36-3,3.19-5.82,4.06-9,1-3.81.64-7.84.51-11.79a37.12,37.12,0,0,1,.89-10.4,17.81,17.81,0,0,1,5.14-8.95c6.64-5.93,18.8-6.36,26.91-3.89,3.2,1,6.61,2.83,7.4,6.07.12.5.17,1,.31,1.49.66,2.41,3.14,3.94,4,6.29,1.15,3-.63,6.32-.86,9.56-.27,3.78,1.59,7.34,3.41,10.66,1.09,2,2.22,4.07,2.12,6.32a8,8,0,0,1-1.1,3.48A13.27,13.27,0,0,1,184,356.24a7,7,0,0,1-4.18-1c-2-1.37-2.56-4.11-2.15-6.48s1.62-4.51,2.56-6.72c.29-.68.55-1.37.79-2.07a14.18,14.18,0,1,0-9.36,1.59,19.21,19.21,0,0,1-.93,10.69,40.22,40.22,0,0,1-4.49,7.82,10.91,10.91,0,0,1-2.85,3.2,10.49,10.49,0,0,1-2.44,1c-3.58,1.15-7.35,2.08-11.08,1.56s-7.41-2.77-8.68-6.31C140.07,356.48,141,353,142.32,350Z"/><ellipse class="cls-5" cx="173.32" cy="318.84" rx="15.47" ry="8.77"/><path class="cls-3" d="M409.73,292.05a2.64,2.64,0,0,0-1.23-1.36,3.92,3.92,0,0,0-1.1-.45,2.94,2.94,0,0,0,.71-.5,2.61,2.61,0,0,0,.68-1.05,3.63,3.63,0,0,0,.15-1.27,3.9,3.9,0,0,0-.57-2,3.61,3.61,0,0,0-1.64-1.22,6.18,6.18,0,0,0-2-.4V280.9L403,282v1.75h-1.39v-1.84l-1.79-1v2.88H396l1.22,2.17a1.94,1.94,0,0,1,.76.1.61.61,0,0,1,.28.27,2.14,2.14,0,0,1,.09.79v7.81a2.12,2.12,0,0,1-.09.79c-.05.12-.08.22-.22.28s-.14.06-.51.06h0L396,298.22h3.79v2.88h1.78v-2.88H403v2.88h1.74v-2.9a8.17,8.17,0,0,0,2.59-.47,4.25,4.25,0,0,0,1.95-1.42A4.48,4.48,0,0,0,410,294,5.15,5.15,0,0,0,409.73,292.05Zm-8.13-5.83h0v-.06h1.21c.69,0,3-.24,3,1.69s-3,1.86-3,1.86h-1.21v-.15h0Zm0,5.5H403c.28,0,1.26,0,1.61.06a1.56,1.56,0,0,1,.43.08l.14.06a2.1,2.1,0,0,1,.61.32,1.26,1.26,0,0,1,.31.3,2,2,0,0,1,.34,1.11,1.63,1.63,0,0,1-.21.89,2,2,0,0,1-.94.8,5.83,5.83,0,0,1-2.29.44h-1.4Z"/></g></g></svg>